<?xml version="1.0" standalone="no"?>
<!DOCTYPE svg PUBLIC "-//W3C//DTD SVG 20010904//EN"
 "http://www.w3.org/TR/2001/REC-SVG-20010904/DTD/svg10.dtd">
<svg version="1.0" xmlns="http://www.w3.org/2000/svg"
 width="1600.000000pt" height="1600.000000pt" viewBox="0 0 1600.000000 1600.000000"
 preserveAspectRatio="xMidYMid meet">
<metadata>
Created by potrace 1.14, written by Peter Selinger 2001-2017
</metadata>
<g transform="translate(0.000000,1600.000000) scale(0.100000,-0.100000)"
fill="#000000" stroke="none">
<path d="M1815 10705 c-71 -18 -115 -62 -134 -130 -15 -60 -14 -5045 2 -5089
21 -57 78 -111 130 -122 12 -3 2837 -5 6277 -6 4654 0 6266 3 6297 11 48 13
102 65 119 114 8 23 11 729 10 2567 l-1 2535 -27 40 c-30 43 -71 73 -116 82
-53 11 -12514 9 -12557 -2z"/>
</g>
</svg>
